<svg width="32" height="32" viewBox="0 0 32 32" fill="none" xmlns="http://www.w3.org/2000/svg">
<g clip-path="url(#clip0_2_34)">
<path d="M32 16C32 24.8361 24.8361 32 16 32C7.16395 32 0 24.8361 0 16C0 7.16395 7.16395 0 16 0C24.8379 0 32 7.16395 32 16Z" fill="#2081E2"/>
<path d="M7.8937 16.5376L7.96274 16.4291L12.125 9.91785C12.1858 9.82249 12.3288 9.83238 12.3748 9.93591C13.0702 11.4943 13.6702 13.4324 13.3891 14.639C13.2691 15.1354 12.9403 15.8078 12.5705 16.4291C12.5228 16.5196 12.4702 16.6083 12.4143 16.6938C12.388 16.7332 12.3436 16.7563 12.2959 16.7563H8.01533C7.90027 16.7563 7.8329 16.6313 7.8937 16.5376Z" fill="white"/>
<path d="M26.4462 17.7475V18.7782C26.4462 18.8374 26.41 18.89 26.3574 18.913C26.0352 19.0511 24.9322 19.5574 24.4736 20.1952C23.3032 21.8243 22.4089 24.1536 20.41 24.1536H12.0707C9.11506 24.1536 6.71997 21.7503 6.71997 18.7848V18.6894C6.71997 18.6105 6.78408 18.5464 6.86301 18.5464H11.5118C11.6038 18.5464 11.6713 18.6319 11.663 18.7223C11.6302 19.0248 11.6861 19.3339 11.8291 19.615C12.1053 20.1755 12.6773 20.5256 13.2954 20.5256H15.5968V18.7289H13.3217C13.205 18.7289 13.1359 18.5941 13.2033 18.4988C13.228 18.461 13.2559 18.4215 13.2855 18.3771C13.5009 18.0714 13.8083 17.5963 14.114 17.0555C14.3228 16.6905 14.525 16.3009 14.6877 15.9097C14.7206 15.839 14.7469 15.7667 14.7732 15.696C14.8176 15.5711 14.8636 15.4544 14.8965 15.3377C14.9294 15.239 14.9557 15.1355 14.982 15.0385C15.0592 14.7064 15.0921 14.3546 15.0921 13.9897C15.0921 13.8467 15.0856 13.6971 15.0724 13.5541C15.0658 13.3979 15.0461 13.2417 15.0264 13.0856C15.0132 12.9475 14.9886 12.811 14.9622 12.668C14.9294 12.4593 14.8833 12.2521 14.8307 12.0434L14.8127 11.9645C14.7732 11.8215 14.7403 11.685 14.6943 11.542C14.5645 11.0932 14.4148 10.656 14.257 10.2466C14.1995 10.0839 14.1337 9.92774 14.068 9.77158C13.971 9.53649 13.8724 9.3228 13.782 9.12059C13.7359 9.02854 13.6965 8.9447 13.657 8.85922C13.6127 8.76223 13.5666 8.66527 13.5206 8.57318C13.4877 8.5025 13.4499 8.43675 13.4236 8.37101L13.1425 7.85154C13.103 7.78086 13.1688 7.69702 13.2461 7.71839L15.005 8.19512H15.0099C15.0132 8.19512 15.0149 8.19675 15.0165 8.19675L15.2483 8.26086L15.5031 8.33318L15.5968 8.35949V7.31402C15.5968 6.80934 16.0012 6.40002 16.5009 6.40002C16.7508 6.40002 16.9776 6.50193 17.1403 6.66797C17.3031 6.83402 17.405 7.06086 17.405 7.31402V8.8658L17.5924 8.91839C17.6072 8.92333 17.622 8.92991 17.6352 8.93976C17.6812 8.97428 17.7469 9.02527 17.8308 9.0877C17.8965 9.14033 17.9672 9.20443 18.0527 9.27018C18.222 9.40664 18.4242 9.58253 18.6461 9.7847C18.7053 9.83569 18.7629 9.88827 18.8154 9.9409C19.1015 10.2072 19.422 10.5195 19.7278 10.8647C19.8133 10.9617 19.8971 11.0603 19.9826 11.1639C20.0681 11.2691 20.1585 11.3727 20.2374 11.4763C20.3409 11.6143 20.4527 11.7573 20.5497 11.9069C20.5957 11.9776 20.6483 12.0499 20.6927 12.1206C20.8176 12.3097 20.9278 12.5053 21.033 12.7009C21.0774 12.7913 21.1234 12.8899 21.1629 12.9869C21.2796 13.2483 21.3716 13.5146 21.4308 13.7809C21.4489 13.8385 21.4621 13.9009 21.4686 13.9568V13.9699C21.4883 14.0489 21.4949 14.1327 21.5015 14.2182C21.5278 14.491 21.5146 14.7639 21.4555 15.0385C21.4308 15.1552 21.3979 15.2653 21.3585 15.382C21.319 15.4938 21.2796 15.6105 21.2286 15.7207C21.13 15.9491 21.0133 16.1777 20.8752 16.3913C20.8308 16.4702 20.7782 16.5541 20.7256 16.633C20.6681 16.7168 20.6089 16.7958 20.5563 16.873C20.484 16.9717 20.4067 17.0752 20.3278 17.1672C20.2571 17.2642 20.1848 17.3612 20.1059 17.4467C19.9957 17.5766 19.8905 17.6999 19.7804 17.8182C19.7146 17.8955 19.644 17.9744 19.5716 18.0451C19.5009 18.124 19.4286 18.1947 19.3629 18.2604C19.2527 18.3705 19.1606 18.456 19.0834 18.5267L18.9025 18.6928C18.8763 18.7158 18.8417 18.7289 18.8056 18.7289H17.405V20.5256H19.1672C19.5618 20.5256 19.9365 20.3859 20.239 20.1295C20.3426 20.0391 20.7946 19.6478 21.3289 19.0577C21.347 19.038 21.37 19.0232 21.3963 19.0166L26.2637 17.6094C26.3541 17.5831 26.4462 17.6522 26.4462 17.7475Z" fill="white"/>
</g>
<defs>
<clipPath id="clip0_2_34">
<rect width="32" height="32" fill="white"/>
</clipPath>
</defs>
</svg>
